<svg xmlns="http://www.w3.org/2000/svg" viewBox="-65.0 -250.4587116240035 272.219915248329 310.4587116240035" role="img" aria-label="Numbered route reference map"><rect x="-65.0" y="-250.4587116240035" width="272.219915248329" height="310.4587116240035" fill="#14222d"/><polyline points="0.00,-0.00 7.06,-7.62 13.69,-15.04 19.92,-23.12 26.07,-31.40 39.38,-50.08 47.08,-58.42 55.08,-65.95 61.85,-74.26 66.48,-79.85 79.33,-90.89 85.02,-100.48 87.82,-111.31 93.76,-119.33 102.51,-125.67 106.72,-135.06 114.14,-142.33 117.71,-152.33 122.99,-160.95 128.32,-169.71 135.82,-176.48 137.63,-188.32 142.22,-195.46" fill="none" stroke="#405a6b" stroke-width="8"/><polyline points="0.00,-0.00 7.06,-7.62 13.69,-15.04 19.92,-23.12 26.07,-31.40 39.38,-50.08 47.08,-58.42 55.08,-65.95 61.85,-74.26 66.48,-79.85 79.33,-90.89 85.02,-100.48 87.82,-111.31 93.76,-119.33 102.51,-125.67 106.72,-135.06 114.14,-142.33 117.71,-152.33 122.99,-160.95 128.32,-169.71 135.82,-176.48 137.63,-188.32 142.22,-195.46" fill="none" stroke="#e3e9a3" stroke-width=".6" stroke-dasharray="2 2"/><circle cx="0.00" cy="-0.00" r="1" fill="#d7e8ef"><title>Camera stop 001</title></circle><circle cx="7.06" cy="-7.62" r="1" fill="#d7e8ef"><title>Camera stop 002</title></circle><circle cx="13.69" cy="-15.04" r="1" fill="#d7e8ef"><title>Camera stop 003</title></circle><circle cx="19.92" cy="-23.12" r="1" fill="#d7e8ef"><title>Camera stop 004</title></circle><circle cx="26.07" cy="-31.40" r="1" fill="#d7e8ef"><title>Camera stop 005</title></circle><circle cx="39.38" cy="-50.08" r="1" fill="#d7e8ef"><title>Camera stop 006</title></circle><circle cx="47.08" cy="-58.42" r="1" fill="#d7e8ef"><title>Camera stop 007</title></circle><circle cx="55.08" cy="-65.95" r="1" fill="#d7e8ef"><title>Camera stop 008</title></circle><circle cx="61.85" cy="-74.26" r="1" fill="#d7e8ef"><title>Camera stop 009</title></circle><circle cx="66.48" cy="-79.85" r="1" fill="#d7e8ef"><title>Camera stop 010</title></circle><circle cx="79.33" cy="-90.89" r="1" fill="#d7e8ef"><title>Camera stop 011</title></circle><circle cx="85.02" cy="-100.48" r="1" fill="#d7e8ef"><title>Camera stop 012</title></circle><circle cx="87.82" cy="-111.31" r="1" fill="#d7e8ef"><title>Camera stop 013</title></circle><circle cx="93.76" cy="-119.33" r="1" fill="#d7e8ef"><title>Camera stop 014</title></circle><circle cx="102.51" cy="-125.67" r="1" fill="#d7e8ef"><title>Camera stop 015</title></circle><circle cx="106.72" cy="-135.06" r="1" fill="#d7e8ef"><title>Camera stop 016</title></circle><circle cx="114.14" cy="-142.33" r="1" fill="#d7e8ef"><title>Camera stop 017</title></circle><circle cx="117.71" cy="-152.33" r="1" fill="#d7e8ef"><title>Camera stop 018</title></circle><circle cx="122.99" cy="-160.95" r="1" fill="#d7e8ef"><title>Camera stop 019</title></circle><circle cx="128.32" cy="-169.71" r="1" fill="#d7e8ef"><title>Camera stop 020</title></circle><circle cx="135.82" cy="-176.48" r="1" fill="#d7e8ef"><title>Camera stop 021</title></circle><circle cx="137.63" cy="-188.32" r="1" fill="#d7e8ef"><title>Camera stop 022</title></circle><circle cx="142.22" cy="-195.46" r="1" fill="#d7e8ef"><title>Camera stop 023</title></circle><a href="entries/B001.html" target="_blank" data-id="B001"><line x1="8.8" y1="8.16" x2="17.8" y2="8.16" stroke="#ffca84" stroke-width=".25" opacity=".65"/><circle cx="8.8" cy="8.16" r="1.6" fill="#ffca84"/><text x="17.8" y="9.16" font-size="4.2" text-anchor="start" fill="#ffca84">B001</text><title>B001 Taraj Palace — estimated location</title></a><a href="entries/B002.html" target="_blank" data-id="B002"><line x1="22.92" y1="-7.38" x2="31.92" y2="-7.38" stroke="#ffca84" stroke-width=".25" opacity=".65"/><circle cx="22.92" cy="-7.38" r="1.6" fill="#ffca84"/><text x="31.92" y="-6.38" font-size="4.2" text-anchor="start" fill="#ffca84">B002</text><title>B002 Costcutter Carpets &amp; Beds — estimated location</title></a><a href="entries/B003.html" target="_blank" data-id="B003"><line x1="29.49" y1="-15.88" x2="38.489999999999995" y2="-15.88" stroke="#ffca84" stroke-width=".25" opacity=".65"/><circle cx="29.49" cy="-15.88" r="1.6" fill="#ffca84"/><text x="38.489999999999995" y="-14.88" font-size="4.2" text-anchor="start" fill="#ffca84">B003</text><title>B003 Man-Made Gentleman Barbers — estimated location</title></a><a href="entries/B004.html" target="_blank" data-id="B004"><line x1="35.8" y1="-24.38" x2="44.8" y2="-24.38" stroke="#ffca84" stroke-width=".25" opacity=".65"/><circle cx="35.8" cy="-24.38" r="1.6" fill="#ffca84"/><text x="44.8" y="-23.38" font-size="4.2" text-anchor="start" fill="#ffca84">B004</text><title>B004 Halls of Syston fruit-and-veg corner — estimated location</title></a><a href="entries/B005.html" target="_blank" data-id="B005"><line x1="-6.16" y1="24.29" x2="2.84" y2="24.29" stroke="#ffca84" stroke-width=".25" opacity=".65"/><circle cx="-6.16" cy="24.29" r="1.6" fill="#ffca84"/><text x="2.84" y="25.29" font-size="4.2" text-anchor="start" fill="#ffca84">B005</text><title>B005 Natural World Pet Superstore — southern context — estimated location</title></a><a href="entries/B006.html" target="_blank" data-id="B006"><line x1="-13.56" y1="-3.03" x2="-22.560000000000002" y2="-3.03" stroke="#ffca84" stroke-width=".25" opacity=".65"/><circle cx="-13.56" cy="-3.03" r="1.6" fill="#ffca84"/><text x="-22.560000000000002" y="-2.03" font-size="4.2" text-anchor="end" fill="#ffca84">B006</text><title>B006 The Studio — estimated location</title></a><a href="entries/B007.html" target="_blank" data-id="B007"><line x1="-8.8" y1="-8.16" x2="-17.8" y2="-14.16" stroke="#ffca84" stroke-width=".25" opacity=".65"/><circle cx="-8.8" cy="-8.16" r="1.6" fill="#ffca84"/><text x="-17.8" y="-13.16" font-size="4.2" text-anchor="end" fill="#ffca84">B007</text><title>B007 Delish — estimated location</title></a><a href="entries/B008.html" target="_blank" data-id="B008"><line x1="-7.2" y1="-9.77" x2="-16.2" y2="-21.77" stroke="#ffca84" stroke-width=".25" opacity=".65"/><circle cx="-7.2" cy="-9.77" r="1.6" fill="#ffca84"/><text x="-16.2" y="-20.77" font-size="4.2" text-anchor="end" fill="#ffca84">B008</text><title>B008 Grove — estimated location</title></a><a href="entries/B009.html" target="_blank" data-id="B009"><line x1="-3.16" y1="-14.21" x2="-12.16" y2="-32.21" stroke="#ffca84" stroke-width=".25" opacity=".65"/><circle cx="-3.16" cy="-14.21" r="1.6" fill="#ffca84"/><text x="-12.16" y="-31.21" font-size="4.2" text-anchor="end" fill="#ffca84">B009</text><title>B009 FOX Barbers — estimated location</title></a><a href="entries/B010.html" target="_blank" data-id="B010"><line x1="1.55" y1="-19.39" x2="-7.45" y2="-7.390000000000001" stroke="#ffca84" stroke-width=".25" opacity=".65"/><circle cx="1.55" cy="-19.39" r="1.6" fill="#ffca84"/><text x="-7.45" y="-6.390000000000001" font-size="4.2" text-anchor="end" fill="#ffca84">B010</text><title>B010 Newton Fallowell estate-agent frontage — estimated location</title></a><a href="entries/B011.html" target="_blank" data-id="B011"><line x1="-0.02" y1="-17.32" x2="-9.02" y2="-41.32" stroke="#ffca84" stroke-width=".25" opacity=".65"/><circle cx="-0.02" cy="-17.32" r="1.6" fill="#ffca84"/><text x="-9.02" y="-40.32" font-size="4.2" text-anchor="end" fill="#ffca84">B011</text><title>B011 Syston House takeaway — estimated location</title></a><a href="entries/B012.html" target="_blank" data-id="B012"><line x1="4.45" y1="-22.71" x2="-4.55" y2="1.2899999999999991" stroke="#ffca84" stroke-width=".25" opacity=".65"/><circle cx="4.45" cy="-22.71" r="1.6" fill="#ffca84"/><text x="-4.55" y="2.289999999999999" font-size="4.2" text-anchor="end" fill="#ffca84">B012</text><title>B012 Vista — estimated location</title></a><a href="entries/B013.html" target="_blank" data-id="B013"><line x1="9.14" y1="-28.76" x2="0.14000000000000057" y2="-22.76" stroke="#ffca84" stroke-width=".25" opacity=".65"/><circle cx="9.14" cy="-28.76" r="1.6" fill="#ffca84"/><text x="0.14000000000000057" y="-21.76" font-size="4.2" text-anchor="end" fill="#ffca84">B013</text><title>B013 Flames — estimated location</title></a><a href="entries/B014.html" target="_blank" data-id="B014"><line x1="16.33" y1="-38.42" x2="7.329999999999998" y2="-38.42" stroke="#ffca84" stroke-width=".25" opacity=".65"/><circle cx="16.33" cy="-38.42" r="1.6" fill="#ffca84"/><text x="7.329999999999998" y="-37.42" font-size="4.2" text-anchor="end" fill="#ffca84">B014</text><title>B014 Banking Hub and adjoining glazed corner bays — estimated location</title></a><a href="entries/B015.html" target="_blank" data-id="B015"><line x1="46.31" y1="-74.13" x2="37.31" y2="-74.13" stroke="#ffca84" stroke-width=".25" opacity=".65"/><circle cx="46.31" cy="-74.13" r="1.6" fill="#ffca84"/><text x="37.31" y="-73.13" font-size="4.2" text-anchor="end" fill="#ffca84">B015</text><title>B015 Specsavers / audiology corner — estimated location</title></a><a href="entries/B016.html" target="_blank" data-id="B016"><line x1="57.01" y1="-87.28" x2="48.01" y2="-87.28" stroke="#ffca84" stroke-width=".25" opacity=".65"/><circle cx="57.01" cy="-87.28" r="1.6" fill="#ffca84"/><text x="48.01" y="-86.28" font-size="4.2" text-anchor="end" fill="#ffca84">B016</text><title>B016 Today&#x27;s Catch — estimated location</title></a><a href="entries/B017.html" target="_blank" data-id="B017"><line x1="56.76" y1="-87.17" x2="47.76" y2="-99.17" stroke="#ffca84" stroke-width=".25" opacity=".65"/><circle cx="56.76" cy="-87.17" r="1.6" fill="#ffca84"/><text x="47.76" y="-98.17" font-size="4.2" text-anchor="end" fill="#ffca84">B017</text><title>B017 Age UK — estimated location</title></a><a href="entries/B018.html" target="_blank" data-id="B018"><line x1="61.84" y1="-91.99" x2="52.84" y2="-79.99" stroke="#ffca84" stroke-width=".25" opacity=".65"/><circle cx="61.84" cy="-91.99" r="1.6" fill="#ffca84"/><text x="52.84" y="-78.99" font-size="4.2" text-anchor="end" fill="#ffca84">B018</text><title>B018 Mind — estimated location</title></a><a href="entries/B019.html" target="_blank" data-id="B019"><line x1="65.73" y1="-93.7" x2="56.730000000000004" y2="-105.7" stroke="#ffca84" stroke-width=".25" opacity=".65"/><circle cx="65.73" cy="-93.7" r="1.6" fill="#ffca84"/><text x="56.730000000000004" y="-104.7" font-size="4.2" text-anchor="end" fill="#ffca84">B019</text><title>B019 LOROS — estimated location</title></a><a href="entries/B020.html" target="_blank" data-id="B020"><line x1="71.08" y1="-99.65" x2="62.08" y2="-93.65" stroke="#ffca84" stroke-width=".25" opacity=".65"/><circle cx="71.08" cy="-99.65" r="1.6" fill="#ffca84"/><text x="62.08" y="-92.65" font-size="4.2" text-anchor="end" fill="#ffca84">B020</text><title>B020 Subway — estimated location</title></a><a href="entries/B021.html" target="_blank" data-id="B021"><line x1="72.78" y1="-102.31" x2="63.78" y2="-114.31" stroke="#ffca84" stroke-width=".25" opacity=".65"/><circle cx="72.78" cy="-102.31" r="1.6" fill="#ffca84"/><text x="63.78" y="-113.31" font-size="4.2" text-anchor="end" fill="#ffca84">B021</text><title>B021 William Hill — estimated location</title></a><a href="entries/B022.html" target="_blank" data-id="B022"><line x1="74.41" y1="-110.91" x2="65.41" y2="-122.91" stroke="#ffca84" stroke-width=".25" opacity=".65"/><circle cx="74.41" cy="-110.91" r="1.6" fill="#ffca84"/><text x="65.41" y="-121.91" font-size="4.2" text-anchor="end" fill="#ffca84">B022</text><title>B022 Smith Hamylton — estimated location</title></a><a href="entries/B023.html" target="_blank" data-id="B023"><line x1="76.93" y1="-116.35" x2="67.93" y2="-134.35" stroke="#ffca84" stroke-width=".25" opacity=".65"/><circle cx="76.93" cy="-116.35" r="1.6" fill="#ffca84"/><text x="67.93" y="-133.35" font-size="4.2" text-anchor="end" fill="#ffca84">B023</text><title>B023 Byrite Electricals — estimated location</title></a><a href="entries/B024.html" target="_blank" data-id="B024"><line x1="81.08" y1="-123.72" x2="72.08" y2="-141.72" stroke="#ffca84" stroke-width=".25" opacity=".65"/><circle cx="81.08" cy="-123.72" r="1.6" fill="#ffca84"/><text x="72.08" y="-140.72" font-size="4.2" text-anchor="end" fill="#ffca84">B024</text><title>B024 Greggs — estimated location</title></a><a href="entries/B025.html" target="_blank" data-id="B025"><line x1="86.08" y1="-128.61" x2="77.08" y2="-152.61" stroke="#ffca84" stroke-width=".25" opacity=".65"/><circle cx="86.08" cy="-128.61" r="1.6" fill="#ffca84"/><text x="77.08" y="-151.61" font-size="4.2" text-anchor="end" fill="#ffca84">B025</text><title>B025 Hays Travel — estimated location</title></a><a href="entries/B026.html" target="_blank" data-id="B026"><line x1="93.25" y1="-133.31" x2="84.25" y2="-133.31" stroke="#ffca84" stroke-width=".25" opacity=".65"/><circle cx="93.25" cy="-133.31" r="1.6" fill="#ffca84"/><text x="84.25" y="-132.31" font-size="4.2" text-anchor="end" fill="#ffca84">B026</text><title>B026 Sunlit Chemist — estimated location</title></a><a href="entries/B027.html" target="_blank" data-id="B027"><line x1="101.33" y1="-144.55" x2="92.33" y2="-144.55" stroke="#ffca84" stroke-width=".25" opacity=".65"/><circle cx="101.33" cy="-144.55" r="1.6" fill="#ffca84"/><text x="92.33" y="-143.55" font-size="4.2" text-anchor="end" fill="#ffca84">B027</text><title>B027 B&amp;M gabled frontage — estimated location</title></a><a href="entries/B028.html" target="_blank" data-id="B028"><line x1="107.3" y1="-158.38" x2="98.3" y2="-158.38" stroke="#ffca84" stroke-width=".25" opacity=".65"/><circle cx="107.3" cy="-158.38" r="1.6" fill="#ffca84"/><text x="98.3" y="-157.38" font-size="4.2" text-anchor="end" fill="#ffca84">B028</text><title>B028 Town Square Shopping Centre gable — estimated location</title></a><a href="entries/B029.html" target="_blank" data-id="B029"><line x1="116.53" y1="-174.27" x2="107.53" y2="-174.27" stroke="#ffca84" stroke-width=".25" opacity=".65"/><circle cx="116.53" cy="-174.27" r="1.6" fill="#ffca84"/><text x="107.53" y="-173.27" font-size="4.2" text-anchor="end" fill="#ffca84">B029</text><title>B029 Marine fish-and-chips frontage — estimated location</title></a><a href="entries/B030.html" target="_blank" data-id="B030"><line x1="121.07" y1="-173.79" x2="112.07" y2="-185.79" stroke="#ffca84" stroke-width=".25" opacity=".65"/><circle cx="121.07" cy="-173.79" r="1.6" fill="#ffca84"/><text x="112.07" y="-184.79" font-size="4.2" text-anchor="end" fill="#ffca84">B030</text><title>B030 We Vape frontage — verify exact styling — estimated location</title></a><a href="entries/B031.html" target="_blank" data-id="B031"><line x1="123.75" y1="-179.16" x2="114.75" y2="-167.16" stroke="#ffca84" stroke-width=".25" opacity=".65"/><circle cx="123.75" cy="-179.16" r="1.6" fill="#ffca84"/><text x="114.75" y="-166.16" font-size="4.2" text-anchor="end" fill="#ffca84">B031</text><title>B031 Town Square recessed passage frontage — estimated location</title></a><a href="entries/B032.html" target="_blank" data-id="B032"><line x1="124.34" y1="-186.47" x2="115.34" y2="-192.47" stroke="#ffca84" stroke-width=".25" opacity=".65"/><circle cx="124.34" cy="-186.47" r="1.6" fill="#ffca84"/><text x="115.34" y="-191.47" font-size="4.2" text-anchor="end" fill="#ffca84">B032</text><title>B032 Amy Clarke Hair — estimated location</title></a><a href="entries/B033.html" target="_blank" data-id="B033"><line x1="127.8" y1="-195.22" x2="118.8" y2="-201.22" stroke="#ffca84" stroke-width=".25" opacity=".65"/><circle cx="127.8" cy="-195.22" r="1.6" fill="#ffca84"/><text x="118.8" y="-200.22" font-size="4.2" text-anchor="end" fill="#ffca84">B033</text><title>B033 GLO corner frontage — estimated location</title></a><a href="entries/B034.html" target="_blank" data-id="B034"><line x1="67.95" y1="-62.78" x2="76.95" y2="-62.78" stroke="#ffca84" stroke-width=".25" opacity=".65"/><circle cx="67.95" cy="-62.78" r="1.6" fill="#ffca84"/><text x="76.95" y="-61.78" font-size="4.2" text-anchor="start" fill="#ffca84">B034</text><title>B034 Golden Barber — estimated location</title></a><a href="entries/B035.html" target="_blank" data-id="B035"><line x1="71.13" y1="-66.65" x2="80.13" y2="-72.65" stroke="#ffca84" stroke-width=".25" opacity=".65"/><circle cx="71.13" cy="-66.65" r="1.6" fill="#ffca84"/><text x="80.13" y="-71.65" font-size="4.2" text-anchor="start" fill="#ffca84">B035</text><title>B035 Designer Daisies — estimated location</title></a><a href="entries/B036.html" target="_blank" data-id="B036"><line x1="74.3" y1="-70.51" x2="83.3" y2="-82.51" stroke="#ffca84" stroke-width=".25" opacity=".65"/><circle cx="74.3" cy="-70.51" r="1.6" fill="#ffca84"/><text x="83.3" y="-81.51" font-size="4.2" text-anchor="start" fill="#ffca84">B036</text><title>B036 Syston Jewellers — estimated location</title></a><a href="entries/B037.html" target="_blank" data-id="B037"><line x1="68.63" y1="-62.89" x2="77.63" y2="-50.89" stroke="#ffca84" stroke-width=".25" opacity=".65"/><circle cx="68.63" cy="-62.89" r="1.6" fill="#ffca84"/><text x="77.63" y="-49.89" font-size="4.2" text-anchor="start" fill="#ffca84">B037</text><title>B037 End bay beside the bus shelter — name unresolved — estimated location</title></a><a href="entries/B038.html" target="_blank" data-id="B038"><line x1="96.1" y1="-95.87" x2="105.1" y2="-95.87" stroke="#ffca84" stroke-width=".25" opacity=".65"/><circle cx="96.1" cy="-95.87" r="1.6" fill="#ffca84"/><text x="105.1" y="-94.87" font-size="4.2" text-anchor="start" fill="#ffca84">B038</text><title>B038 Food Warehouse retail block — estimated location</title></a><a href="entries/B039.html" target="_blank" data-id="B039"><line x1="94.95" y1="-93.1" x2="103.95" y2="-87.1" stroke="#ffca84" stroke-width=".25" opacity=".65"/><circle cx="94.95" cy="-93.1" r="1.6" fill="#ffca84"/><text x="103.95" y="-86.1" font-size="4.2" text-anchor="start" fill="#ffca84">B039</text><title>B039 cardfactory — estimated location</title></a><a href="entries/B040.html" target="_blank" data-id="B040"><line x1="88.93" y1="-83.61" x2="97.93" y2="-77.61" stroke="#ffca84" stroke-width=".25" opacity=".65"/><circle cx="88.93" cy="-83.61" r="1.6" fill="#ffca84"/><text x="97.93" y="-76.61" font-size="4.2" text-anchor="start" fill="#ffca84">B040</text><title>B040 Savers — estimated location</title></a><a href="entries/B041.html" target="_blank" data-id="B041"><line x1="100.0" y1="-108.66" x2="109.0" y2="-108.66" stroke="#ffca84" stroke-width=".25" opacity=".65"/><circle cx="100.0" cy="-108.66" r="1.6" fill="#ffca84"/><text x="109.0" y="-107.66" font-size="4.2" text-anchor="start" fill="#ffca84">B041</text><title>B041 Syston DIY / Firework Deals Store — estimated location</title></a><a href="entries/B042.html" target="_blank" data-id="B042"><line x1="111.77" y1="-118.04" x2="120.77" y2="-118.04" stroke="#ffca84" stroke-width=".25" opacity=".65"/><circle cx="111.77" cy="-118.04" r="1.6" fill="#ffca84"/><text x="120.77" y="-117.04" font-size="4.2" text-anchor="start" fill="#ffca84">B042</text><title>B042 Spencers — estimated location</title></a><a href="entries/B043.html" target="_blank" data-id="B043"><line x1="116.56" y1="-128.19" x2="125.56" y2="-128.19" stroke="#ffca84" stroke-width=".25" opacity=".65"/><circle cx="116.56" cy="-128.19" r="1.6" fill="#ffca84"/><text x="125.56" y="-127.19" font-size="4.2" text-anchor="start" fill="#ffca84">B043</text><title>B043 Syston Sizzler — estimated location</title></a><a href="entries/B044.html" target="_blank" data-id="B044"><line x1="124.26" y1="-135.89" x2="133.26" y2="-135.89" stroke="#ffca84" stroke-width=".25" opacity=".65"/><circle cx="124.26" cy="-135.89" r="1.6" fill="#ffca84"/><text x="133.26" y="-134.89" font-size="4.2" text-anchor="start" fill="#ffca84">B044</text><title>B044 Betfred — estimated location</title></a><a href="entries/B045.html" target="_blank" data-id="B045"><line x1="128.55" y1="-147.17" x2="137.55" y2="-147.17" stroke="#ffca84" stroke-width=".25" opacity=".65"/><circle cx="128.55" cy="-147.17" r="1.6" fill="#ffca84"/><text x="137.55" y="-146.17" font-size="4.2" text-anchor="start" fill="#ffca84">B045</text><title>B045 Costa Coffee — estimated location</title></a><a href="entries/B046.html" target="_blank" data-id="B046"><line x1="134.39" y1="-158.21" x2="143.39" y2="-158.21" stroke="#ffca84" stroke-width=".25" opacity=".65"/><circle cx="134.39" cy="-158.21" r="1.6" fill="#ffca84"/><text x="143.39" y="-157.21" font-size="4.2" text-anchor="start" fill="#ffca84">B046</text><title>B046 Josiah Hincks Solicitors — estimated location</title></a><a href="entries/B047.html" target="_blank" data-id="B047"><line x1="146.56" y1="-171.11" x2="155.56" y2="-171.11" stroke="#ffca84" stroke-width=".25" opacity=".65"/><circle cx="146.56" cy="-171.11" r="1.6" fill="#ffca84"/><text x="155.56" y="-170.11" font-size="4.2" text-anchor="start" fill="#ffca84">B047</text><title>B047 Bistro Oggi corner — estimated location</title></a><a href="entries/B048.html" target="_blank" data-id="B048"><line x1="140.6" y1="-210.94" x2="149.6" y2="-210.94" stroke="#ffca84" stroke-width=".25" opacity=".65"/><circle cx="140.6" cy="-210.94" r="1.6" fill="#ffca84"/><text x="149.6" y="-209.94" font-size="4.2" text-anchor="start" fill="#ffca84">B048</text><title>B048 Fox &amp; Hounds — junction context — estimated location</title></a><a href="entries/B049.html" target="_blank" data-id="B049"><line x1="147.63" y1="-221.87" x2="156.63" y2="-221.87" stroke="#ffca84" stroke-width=".25" opacity=".65"/><circle cx="147.63" cy="-221.87" r="1.6" fill="#ffca84"/><text x="156.63" y="-220.87" font-size="4.2" text-anchor="start" fill="#ffca84">B049</text><title>B049 Northern junction retail row — identities unresolved — estimated location</title></a><a href="entries/B050.html" target="_blank" data-id="B050"><line x1="119.48" y1="-216.35" x2="128.48000000000002" y2="-216.35" stroke="#ffca84" stroke-width=".25" opacity=".65"/><circle cx="119.48" cy="-216.35" r="1.6" fill="#ffca84"/><text x="128.48000000000002" y="-215.35" font-size="4.2" text-anchor="start" fill="#ffca84">B050</text><title>B050 Pharmacie Arms — existing reference anchor — estimated location</title></a><a href="entries/B051.html" target="_blank" data-id="B051"><line x1="92.26" y1="-86.64" x2="101.26" y2="-68.64" stroke="#ffca84" stroke-width=".25" opacity=".65"/><circle cx="92.26" cy="-86.64" r="1.6" fill="#ffca84"/><text x="101.26" y="-67.64" font-size="4.2" text-anchor="start" fill="#ffca84">B051</text><title>B051 Oxfam lower frontage — estimated location</title></a><a href="entries/F001.html" target="_blank" data-id="F001"><line x1="85.02" y1="-100.48" x2="94.02" y2="-106.48" stroke="#9cdbca" stroke-width=".25" opacity=".65"/><circle cx="85.02" cy="-100.48" r="1.6" fill="#9cdbca"/><text x="94.02" y="-105.48" font-size="4.2" text-anchor="start" fill="#9cdbca">F001</text><title>F001 Melton Road carriageway and route — estimated location</title></a><a href="entries/F002.html" target="_blank" data-id="F002"><line x1="85.02" y1="-100.48" x2="94.02" y2="-118.48" stroke="#9cdbca" stroke-width=".25" opacity=".65"/><circle cx="85.02" cy="-100.48" r="1.6" fill="#9cdbca"/><text x="94.02" y="-117.48" font-size="4.2" text-anchor="start" fill="#9cdbca">F002</text><title>F002 Pavements, kerbs and drainage — estimated location</title></a><a href="entries/F003.html" target="_blank" data-id="F003"><line x1="39.38" y1="-50.08" x2="48.38" y2="-50.08" stroke="#9cdbca" stroke-width=".25" opacity=".65"/><circle cx="39.38" cy="-50.08" r="1.6" fill="#9cdbca"/><text x="48.38" y="-49.08" font-size="4.2" text-anchor="start" fill="#9cdbca">F003</text><title>F003 Brook and bridge — estimated location</title></a><a href="entries/F004.html" target="_blank" data-id="F004"><line x1="55.61" y1="-49.98" x2="64.61" y2="-43.98" stroke="#9cdbca" stroke-width=".25" opacity=".65"/><circle cx="55.61" cy="-49.98" r="1.6" fill="#9cdbca"/><text x="64.61" y="-42.98" font-size="4.2" text-anchor="start" fill="#9cdbca">F004</text><title>F004 Brookside / bridge-side junction and access — estimated location</title></a><a href="entries/F005.html" target="_blank" data-id="F005"><line x1="29.91" y1="-57.45" x2="20.91" y2="-57.45" stroke="#9cdbca" stroke-width=".25" opacity=".65"/><circle cx="29.91" cy="-57.45" r="1.6" fill="#9cdbca"/><text x="20.91" y="-56.45" font-size="4.2" text-anchor="end" fill="#9cdbca">F005</text><title>F005 Bridge railings and brook boundary walls — estimated location</title></a><a href="entries/F006.html" target="_blank" data-id="F006"><line x1="65.9" y1="-59.96" x2="74.9" y2="-35.96" stroke="#9cdbca" stroke-width=".25" opacity=".65"/><circle cx="65.9" cy="-59.96" r="1.6" fill="#9cdbca"/><text x="74.9" y="-34.96" font-size="4.2" text-anchor="start" fill="#9cdbca">F006</text><title>F006 Green bus shelter beside corner shops — estimated location</title></a><a href="entries/F007.html" target="_blank" data-id="F007"><line x1="-3.4" y1="3.67" x2="5.6" y2="-2.33" stroke="#9cdbca" stroke-width=".25" opacity=".65"/><circle cx="-3.4" cy="3.67" r="1.6" fill="#9cdbca"/><text x="5.6" y="-1.33" font-size="4.2" text-anchor="start" fill="#9cdbca">F007</text><title>F007 Southern traffic-controlled crossing — estimated location</title></a><a href="entries/F008.html" target="_blank" data-id="F008"><line x1="87.82" y1="-111.31" x2="96.82" y2="-129.31" stroke="#9cdbca" stroke-width=".25" opacity=".65"/><circle cx="87.82" cy="-111.31" r="1.6" fill="#9cdbca"/><text x="96.82" y="-128.31" font-size="4.2" text-anchor="start" fill="#9cdbca">F008</text><title>F008 Greggs / DIY traffic-controlled crossing — estimated location</title></a><a href="entries/F009.html" target="_blank" data-id="F009"><line x1="111.77" y1="-118.04" x2="120.77" y2="-100.04" stroke="#9cdbca" stroke-width=".25" opacity=".65"/><circle cx="111.77" cy="-118.04" r="1.6" fill="#9cdbca"/><text x="120.77" y="-99.04" font-size="4.2" text-anchor="start" fill="#9cdbca">F009</text><title>F009 Retail car-park entrance and yellow box — estimated location</title></a><a href="entries/F010.html" target="_blank" data-id="F010"><line x1="105.63" y1="-151.3" x2="96.63" y2="-151.3" stroke="#9cdbca" stroke-width=".25" opacity=".65"/><circle cx="105.63" cy="-151.3" r="1.6" fill="#9cdbca"/><text x="96.63" y="-150.3" font-size="4.2" text-anchor="end" fill="#9cdbca">F010</text><title>F010 B&amp;M market canopies and pavement stalls — estimated location</title></a><a href="entries/F011.html" target="_blank" data-id="F011"><line x1="131.67" y1="-152.14" x2="140.67" y2="-170.14" stroke="#9cdbca" stroke-width=".25" opacity=".65"/><circle cx="131.67" cy="-152.14" r="1.6" fill="#9cdbca"/><text x="140.67" y="-169.14" font-size="4.2" text-anchor="start" fill="#9cdbca">F011</text><title>F011 Iron-gated gap beside Costa — estimated location</title></a><a href="entries/F012.html" target="_blank" data-id="F012"><line x1="137.63" y1="-188.32" x2="146.63" y2="-188.32" stroke="#9cdbca" stroke-width=".25" opacity=".65"/><circle cx="137.63" cy="-188.32" r="1.6" fill="#9cdbca"/><text x="146.63" y="-187.32" font-size="4.2" text-anchor="start" fill="#9cdbca">F012</text><title>F012 Zebra crossing and beacon approach — estimated location</title></a><a href="entries/F013.html" target="_blank" data-id="F013"><line x1="142.22" y1="-195.46" x2="151.22" y2="-195.46" stroke="#9cdbca" stroke-width=".25" opacity=".65"/><circle cx="142.22" cy="-195.46" r="1.6" fill="#9cdbca"/><text x="151.22" y="-194.46" font-size="4.2" text-anchor="start" fill="#9cdbca">F013</text><title>F013 Mini-roundabout and traffic island — estimated location</title></a><a href="entries/F014.html" target="_blank" data-id="F014"><line x1="117.71" y1="-152.33" x2="126.71" y2="-158.33" stroke="#9cdbca" stroke-width=".25" opacity=".65"/><circle cx="117.71" cy="-152.33" r="1.6" fill="#9cdbca"/><text x="126.71" y="-157.33" font-size="4.2" text-anchor="start" fill="#9cdbca">F014</text><title>F014 Street furniture: lamps, bins and planting — estimated location</title></a><a href="entries/F015.html" target="_blank" data-id="F015"><line x1="119.08" y1="-177.35" x2="95.08" y2="-183.35" stroke="#9cdbca" stroke-width=".25" opacity=".65"/><circle cx="119.08" cy="-177.35" r="1.6" fill="#9cdbca"/><text x="95.08" y="-182.35" font-size="4.2" text-anchor="end" fill="#9cdbca">F015</text><title>F015 Facade utilities and roof services — estimated location</title></a><a href="entries/F016.html" target="_blank" data-id="F016"><line x1="68.4" y1="-96.68" x2="59.400000000000006" y2="-72.68" stroke="#9cdbca" stroke-width=".25" opacity=".65"/><circle cx="68.4" cy="-96.68" r="1.6" fill="#9cdbca"/><text x="59.400000000000006" y="-71.68" font-size="4.2" text-anchor="end" fill="#9cdbca">F016</text><title>F016 Narrow access bay between LOROS and Subway — estimated location</title></a><a href="entries/F017.html" target="_blank" data-id="F017"><line x1="120.35" y1="-178.89" x2="96.35" y2="-190.89" stroke="#9cdbca" stroke-width=".25" opacity=".65"/><circle cx="120.35" cy="-178.89" r="1.6" fill="#9cdbca"/><text x="96.35" y="-189.89" font-size="4.2" text-anchor="end" fill="#9cdbca">F017</text><title>F017 White access door between Marine and vape — estimated location</title></a><text x="-57.0" y="-238.4587116240035" fill="#fff" font-size="5">N ↑</text><text x="-57.0" y="-230.4587116240035" fill="#c5d3db" font-size="3.5">Numbered reference markers; positions estimated</text></svg>